<svg width="205" height="68" viewBox="0 0 205 68" fill="none" xmlns="http://www.w3.org/2000/svg">
<path d="M73.488 54.624L70.656 60.084V63H68.976V60.084L66.132 54.624H68.028L69.828 58.452L71.616 54.624H73.488ZM78.3449 63.084C77.5609 63.084 76.8409 62.9 76.1849 62.532C75.5289 62.164 75.0089 61.656 74.6249 61.008C74.2409 60.352 74.0489 59.612 74.0489 58.788C74.0489 57.972 74.2409 57.24 74.6249 56.592C75.0089 55.936 75.5289 55.424 76.1849 55.056C76.8409 54.688 77.5609 54.504 78.3449 54.504C79.1369 54.504 79.8569 54.688 80.5049 55.056C81.1609 55.424 81.6769 55.936 82.0529 56.592C82.4369 57.24 82.6289 57.972 82.6289 58.788C82.6289 59.612 82.4369 60.352 82.0529 61.008C81.6769 61.656 81.1609 62.164 80.5049 62.532C79.8489 62.9 79.1289 63.084 78.3449 63.084ZM78.3449 61.584C78.8489 61.584 79.2929 61.472 79.6769 61.248C80.0609 61.016 80.3609 60.688 80.5769 60.264C80.7929 59.84 80.9009 59.348 80.9009 58.788C80.9009 58.228 80.7929 57.74 80.5769 57.324C80.3609 56.9 80.0609 56.576 79.6769 56.352C79.2929 56.128 78.8489 56.016 78.3449 56.016C77.8409 56.016 77.3929 56.128 77.0009 56.352C76.6169 56.576 76.3169 56.9 76.1009 57.324C75.8849 57.74 75.7769 58.228 75.7769 58.788C75.7769 59.348 75.8849 59.84 76.1009 60.264C76.3169 60.688 76.6169 61.016 77.0009 61.248C77.3929 61.472 77.8409 61.584 78.3449 61.584ZM85.5348 54.624V59.808C85.5348 60.376 85.6828 60.812 85.9788 61.116C86.2748 61.412 86.6908 61.56 87.2268 61.56C87.7708 61.56 88.1908 61.412 88.4868 61.116C88.7828 60.812 88.9308 60.376 88.9308 59.808V54.624H90.6228V59.796C90.6228 60.508 90.4668 61.112 90.1548 61.608C89.8508 62.096 89.4388 62.464 88.9188 62.712C88.4068 62.96 87.8348 63.084 87.2028 63.084C86.5788 63.084 86.0108 62.96 85.4988 62.712C84.9948 62.464 84.5948 62.096 84.2988 61.608C84.0028 61.112 83.8548 60.508 83.8548 59.796V54.624H85.5348ZM96.566 63L94.718 59.736H93.926V63H92.246V54.624H95.39C96.038 54.624 96.59 54.74 97.046 54.972C97.502 55.196 97.842 55.504 98.066 55.896C98.298 56.28 98.414 56.712 98.414 57.192C98.414 57.744 98.254 58.244 97.934 58.692C97.614 59.132 97.138 59.436 96.506 59.604L98.51 63H96.566ZM93.926 58.476H95.33C95.786 58.476 96.126 58.368 96.35 58.152C96.574 57.928 96.686 57.62 96.686 57.228C96.686 56.844 96.574 56.548 96.35 56.34C96.126 56.124 95.786 56.016 95.33 56.016H93.926V58.476ZM108.493 54.624V55.98H106.261V63H104.581V55.98H102.349V54.624H108.493ZM111.399 54.624V63H109.719V54.624H111.399ZM122.19 54.624V63H120.51V57.552L118.266 63H116.994L114.738 57.552V63H113.058V54.624H114.966L117.63 60.852L120.294 54.624H122.19ZM125.531 55.98V58.08H128.351V59.412H125.531V61.632H128.711V63H123.851V54.612H128.711V55.98H125.531ZM132.074 61.236L130.67 64.608H129.59L130.37 61.236H132.074ZM142.804 54.624L139.972 60.084V63H138.292V60.084L135.448 54.624H137.344L139.144 58.452L140.932 54.624H142.804ZM147.661 63.084C146.877 63.084 146.157 62.9 145.501 62.532C144.845 62.164 144.325 61.656 143.941 61.008C143.557 60.352 143.365 59.612 143.365 58.788C143.365 57.972 143.557 57.24 143.941 56.592C144.325 55.936 144.845 55.424 145.501 55.056C146.157 54.688 146.877 54.504 147.661 54.504C148.453 54.504 149.173 54.688 149.821 55.056C150.477 55.424 150.993 55.936 151.369 56.592C151.753 57.24 151.945 57.972 151.945 58.788C151.945 59.612 151.753 60.352 151.369 61.008C150.993 61.656 150.477 62.164 149.821 62.532C149.165 62.9 148.445 63.084 147.661 63.084ZM147.661 61.584C148.165 61.584 148.609 61.472 148.993 61.248C149.377 61.016 149.677 60.688 149.893 60.264C150.109 59.84 150.217 59.348 150.217 58.788C150.217 58.228 150.109 57.74 149.893 57.324C149.677 56.9 149.377 56.576 148.993 56.352C148.609 56.128 148.165 56.016 147.661 56.016C147.157 56.016 146.709 56.128 146.317 56.352C145.933 56.576 145.633 56.9 145.417 57.324C145.201 57.74 145.093 58.228 145.093 58.788C145.093 59.348 145.201 59.84 145.417 60.264C145.633 60.688 145.933 61.016 146.317 61.248C146.709 61.472 147.157 61.584 147.661 61.584ZM154.851 54.624V59.808C154.851 60.376 154.999 60.812 155.295 61.116C155.591 61.412 156.007 61.56 156.543 61.56C157.087 61.56 157.507 61.412 157.803 61.116C158.099 60.812 158.247 60.376 158.247 59.808V54.624H159.939V59.796C159.939 60.508 159.783 61.112 159.471 61.608C159.167 62.096 158.755 62.464 158.235 62.712C157.723 62.96 157.151 63.084 156.519 63.084C155.895 63.084 155.327 62.96 154.815 62.712C154.311 62.464 153.911 62.096 153.615 61.608C153.319 61.112 153.171 60.508 153.171 59.796V54.624H154.851ZM165.882 63L164.034 59.736H163.242V63H161.562V54.624H164.706C165.354 54.624 165.906 54.74 166.362 54.972C166.818 55.196 167.158 55.504 167.382 55.896C167.614 56.28 167.73 56.712 167.73 57.192C167.73 57.744 167.57 58.244 167.25 58.692C166.93 59.132 166.454 59.436 165.822 59.604L167.826 63H165.882ZM163.242 58.476H164.646C165.102 58.476 165.442 58.368 165.666 58.152C165.89 57.928 166.002 57.62 166.002 57.228C166.002 56.844 165.89 56.548 165.666 56.34C165.442 56.124 165.102 56.016 164.646 56.016H163.242V58.476ZM183.305 54.624L180.965 63H178.985L177.413 57.036L175.769 63L173.801 63.012L171.545 54.624H173.345L174.821 61.128L176.525 54.624H178.397L180.005 61.092L181.493 54.624H183.305ZM189.538 61.404H186.202L185.65 63H183.886L186.898 54.612H188.854L191.866 63H190.09L189.538 61.404ZM189.082 60.06L187.87 56.556L186.658 60.06H189.082ZM199.652 54.624L196.82 60.084V63H195.14V60.084L192.296 54.624H194.192L195.992 58.452L197.78 54.624H199.652ZM202.793 54.48L202.601 60.276H201.185L200.981 54.48H202.793ZM201.929 63.084C201.625 63.084 201.373 62.992 201.173 62.808C200.981 62.616 200.885 62.38 200.885 62.1C200.885 61.82 200.981 61.588 201.173 61.404C201.373 61.212 201.625 61.116 201.929 61.116C202.225 61.116 202.469 61.212 202.661 61.404C202.853 61.588 202.949 61.82 202.949 62.1C202.949 62.38 202.853 62.616 202.661 62.808C202.469 62.992 202.225 63.084 201.929 63.084Z" fill="#F6765E"/>
<path d="M77.474 32.5041C86.9427 32.5041 93.7865 26.9966 93.7865 19.3443C93.7865 12.1209 87.7031 6.73338 79.1302 6.12451H66V52.4583H76.0208V32.5041H77.474ZM76.0885 14.9392H77.474C78.5104 14.9392 83.7604 15.1837 83.7604 19.3443C83.7604 23.325 78.9948 23.6294 77.474 23.6294H76.0885V14.9392Z" fill="#062264"/>
<path d="M107.251 6H97.23V52.3384H107.251V6Z" fill="#062264"/>
<path d="M138.557 6.36898L137.865 6.12451H128.12L124.87 14.8747L121.552 6.12451H110.703L114.297 14.9392L119.552 28.8924L110.703 52.4583H121.276L124.87 42.9102L128.464 52.4583H138.974L130.125 28.8924L138.557 6.36898Z" fill="#062264"/>
<path d="M170.13 6.05996L142.417 6V52.3384H170.13V43.4637H152.437V32.3842H163.844V23.5049H152.437V14.8747H170.13V6.05996Z" fill="#062264"/>
<path d="M173.577 52.3384H201.291V43.4637H183.598V6H173.577V52.3384Z" fill="#062264"/>
<path d="M19.6099 23.0106C19.6099 17.3688 24.5297 12.449 30.1715 12.449L33.6921 12.449L33.6921 5.40785L30.1715 5.40784C25.4733 5.40535 21.049 7.23534 17.7226 10.5617C14.3963 13.888 12.5663 18.3124 12.5688 23.0106L12.5663 33.5748C12.5738 38.2417 14.431 42.7153 17.731 46.0153C21.031 49.3153 25.5046 51.1726 30.1715 51.18C32.4831 51.1817 34.7722 50.7266 36.9073 49.8408C39.0424 48.9551 40.9814 47.6562 42.613 46.0187C44.2513 44.3872 45.551 42.4479 46.4372 40.3123C47.3234 38.1767 47.7786 35.8869 47.7768 33.5748L47.7768 30.0542L40.7357 30.0542L40.7357 33.5748C40.7294 36.3746 39.6144 39.058 37.6346 41.0378C35.6548 43.0176 32.9714 44.1327 30.1715 44.1389C27.3711 44.1345 24.6866 43.0201 22.7064 41.0399C20.7262 39.0597 19.6118 36.3752 19.6074 33.5748L19.6099 23.0106Z" fill="#062264"/>
<path d="M25.7663 34.243L25.7663 37.7636L32.8074 37.7636L32.8074 34.243C32.8136 31.4431 33.9287 28.7598 35.9085 26.7799C37.8883 24.8001 40.5717 23.6851 43.3715 23.6788C46.172 23.6833 48.8564 24.7977 50.8366 26.7779C52.8168 28.7581 53.9313 31.4426 53.9357 34.243L53.9332 44.8072C53.9332 50.449 49.0134 55.3688 43.3715 55.3688H39.851L39.851 62.4099L43.3715 62.4099C48.0698 62.4124 52.4941 60.5824 55.8205 57.2561C59.1468 53.9297 60.9768 49.5054 60.9743 44.8072L60.9768 34.243C60.9693 29.5761 59.1121 25.1025 55.8121 21.8025C52.5121 18.5025 48.0384 16.6452 43.3715 16.6377C38.704 16.6434 34.2294 18.5 30.9289 21.8004C27.6285 25.1008 25.7719 29.5755 25.7663 34.243Z" fill="#F6765E"/>
</svg>
