<svg width="74" height="68" viewBox="0 0 74 68" fill="none" xmlns="http://www.w3.org/2000/svg">
<path d="M19.6099 23.0106C19.6099 17.3688 24.5297 12.449 30.1715 12.449L33.6921 12.449L33.6921 5.40785L30.1715 5.40784C25.4733 5.40535 21.049 7.23534 17.7226 10.5617C14.3963 13.888 12.5663 18.3124 12.5688 23.0106L12.5663 33.5748C12.5738 38.2417 14.431 42.7153 17.731 46.0153C21.031 49.3153 25.5046 51.1726 30.1715 51.18C32.4831 51.1817 34.7722 50.7266 36.9073 49.8408C39.0424 48.9551 40.9814 47.6562 42.613 46.0187C44.2513 44.3872 45.551 42.4479 46.4372 40.3123C47.3234 38.1767 47.7786 35.8869 47.7768 33.5748L47.7768 30.0542L40.7357 30.0542L40.7357 33.5748C40.7294 36.3746 39.6144 39.058 37.6346 41.0378C35.6548 43.0176 32.9714 44.1327 30.1715 44.1389C27.3711 44.1345 24.6866 43.0201 22.7064 41.0399C20.7262 39.0597 19.6118 36.3752 19.6074 33.5748L19.6099 23.0106Z" fill="#062264"/>
<path d="M25.7663 34.243L25.7663 37.7636L32.8074 37.7636L32.8074 34.243C32.8136 31.4431 33.9287 28.7598 35.9085 26.7799C37.8883 24.8001 40.5717 23.6851 43.3715 23.6788C46.172 23.6833 48.8564 24.7977 50.8366 26.7779C52.8168 28.7581 53.9313 31.4426 53.9357 34.243L53.9332 44.8072C53.9332 50.449 49.0134 55.3688 43.3715 55.3688H39.851L39.851 62.4099L43.3715 62.4099C48.0698 62.4124 52.4941 60.5824 55.8205 57.2561C59.1468 53.9297 60.9768 49.5054 60.9743 44.8072L60.9768 34.243C60.9693 29.5761 59.1121 25.1025 55.8121 21.8025C52.5121 18.5025 48.0384 16.6452 43.3715 16.6377C38.704 16.6434 34.2294 18.5 30.9289 21.8004C27.6285 25.1008 25.7719 29.5755 25.7663 34.243Z" fill="#F6765E"/>
</svg>
